<?xml version="1.0" standalone="no"?>
<!DOCTYPE svg PUBLIC "-//W3C//DTD SVG 20010904//EN"
 "http://www.w3.org/TR/2001/REC-SVG-20010904/DTD/svg10.dtd">
<svg version="1.0" xmlns="http://www.w3.org/2000/svg"
 width="864.000000pt" height="1152.000000pt" viewBox="0 0 864.000000 1152.000000"
 preserveAspectRatio="xMidYMid meet">

<g transform="translate(0.000000,1152.000000) scale(0.100000,-0.100000)"
fill="#000000" stroke="none">
<path d="M3710 8526 c-184 -119 -356 -229 -382 -246 -43 -29 -49 -39 -73 -111
l-27 -79 -113 -95 c-62 -52 -121 -102 -129 -111 -13 -12 -16 -39 -16 -127 0
-93 -3 -114 -18 -131 -13 -15 -30 -80 -56 -221 -20 -110 -41 -212 -46 -227 -4
-14 -50 -80 -102 -145 l-93 -118 -7 -125 c-3 -69 -6 -164 -7 -211 l-1 -85 106
-112 106 -113 38 -151 c24 -92 46 -158 57 -169 10 -10 74 -57 143 -104 88 -60
133 -85 155 -85 16 0 47 -3 67 -6 l37 -7 3 -89 3 -90 247 -131 c231 -123 255
-139 359 -231 61 -55 124 -110 140 -123 42 -35 240 -56 393 -41 95 9 118 15
159 40 26 17 47 33 47 37 0 3 44 45 98 92 87 76 122 99 342 213 135 70 251
133 258 139 10 8 11 30 6 87 -6 75 -6 77 17 83 13 4 44 7 68 7 39 0 58 10 180
96 75 52 140 102 144 110 7 11 40 142 72 282 3 12 53 74 110 137 l105 115 0
68 c0 38 -3 131 -7 207 l-6 138 -41 53 c-23 29 -68 87 -100 130 l-60 76 -43
222 c-33 166 -48 225 -62 236 -17 15 -17 25 -9 125 4 61 6 119 4 130 -3 11
-63 64 -134 118 -128 97 -129 98 -156 167 -19 48 -38 78 -59 94 -18 13 -200
128 -406 257 l-375 234 -300 3 -301 2 -335 -214z m268 -1079 c167 -166 317
-319 334 -340 l31 -39 -77 -77 c-49 -50 -75 -82 -71 -92 3 -8 40 -40 81 -72
42 -32 74 -60 72 -61 -1 -2 -224 -170 -494 -374 l-491 -371 -6 -68 c-4 -37 -7
-90 -7 -117 0 -45 -1 -48 -22 -42 -13 3 -41 6 -63 6 -34 0 -60 14 -165 87 -69
47 -128 91 -132 97 -4 6 -22 74 -40 151 -36 155 -31 146 -181 302 l-70 71 8
193 7 193 94 123 c53 68 99 136 104 151 5 15 21 92 35 172 14 80 30 169 36
198 12 58 -6 43 224 191 l50 32 220 -6 220 -6 303 -302z m1568 263 c32 -16 95
-53 139 -82 l80 -53 40 -215 c22 -118 45 -222 50 -230 5 -8 50 -67 99 -130
l91 -114 7 -91 c3 -49 7 -137 7 -195 l1 -106 -104 -113 -103 -113 -32 -137
c-17 -75 -31 -141 -31 -148 0 -10 -207 -165 -257 -192 -10 -5 -43 -11 -73 -12
l-55 -3 -3 116 -3 117 -484 377 c-267 207 -485 379 -485 383 0 4 32 30 70 59
39 29 70 60 70 68 0 9 -37 54 -81 100 l-81 83 322 325 c372 375 295 331 586
334 l171 2 59 -30z m-1092 -862 l-65 -50 -37 26 c-20 15 -53 39 -72 56 l-35
29 65 66 64 65 73 -72 72 -71 -65 -49z m424 -488 l482 -375 0 -201 0 -202
-240 -123 c-238 -123 -243 -125 -381 -246 -103 -90 -148 -123 -167 -124 -15 0
-61 -4 -103 -8 -46 -5 -126 -4 -201 3 l-125 11 -134 121 c-132 120 -137 123
-376 250 l-243 128 1 135 c1 75 4 166 8 204 l6 67 490 370 c269 204 492 369
496 368 3 -2 222 -172 487 -378z"/>
<path d="M2814 5678 c-15 -29 -48 -100 -74 -158 -26 -58 -84 -185 -129 -283
-44 -99 -81 -185 -81 -192 0 -31 -15 -35 505 130 110 35 210 66 222 70 13 3
25 16 28 28 3 12 6 114 8 227 l2 205 -55 6 c-30 4 -132 10 -227 13 l-172 7
-27 -53z m439 -268 l-8 -125 -40 -14 c-91 -30 -610 -189 -612 -187 -2 2 225
194 284 240 l25 19 -4 -49 c-2 -38 0 -49 12 -49 11 0 17 18 24 67 9 72 1 63
148 186 15 13 16 6 15 -90 -2 -86 1 -103 13 -103 12 0 16 21 18 117 l3 117 62
52 62 52 3 -54 c1 -30 -1 -110 -5 -179z"/>
<path d="M5510 5701 l-55 -6 2 -220 c2 -184 5 -222 18 -231 20 -15 697 -244
720 -244 13 0 16 6 12 28 -4 23 -184 455 -260 625 l-26 57 -178 -2 c-98 -1
-203 -4 -233 -7z m121 -296 c3 -89 7 -110 19 -110 12 0 16 19 20 87 l5 87 73
-67 c70 -65 72 -69 78 -124 8 -67 31 -81 36 -21 l3 38 118 -109 c64 -60 116
-110 114 -112 -3 -3 -589 194 -593 199 -1 1 -4 85 -8 187 l-7 184 69 -64 69
-65 4 -110z"/>
<path d="M2871 4541 c-44 -102 -82 -176 -95 -185 -20 -14 -17 -15 38 -15 57
-1 58 -1 36 17 -21 17 -21 18 -5 60 l18 43 70 -3 70 -3 16 -43 c15 -42 15 -44
-4 -58 -17 -12 -11 -14 56 -13 60 0 70 2 52 11 -24 12 -41 45 -114 222 -28 66
-53 124 -58 129 -4 4 -40 -69 -80 -162z m118 -53 c1 -5 -24 -8 -54 -8 -30 0
-55 4 -55 9 0 5 12 35 26 67 l27 59 28 -60 c15 -33 28 -63 28 -67z"/>
<path d="M4008 4704 c-3 -5 -25 -54 -48 -109 -77 -184 -102 -233 -123 -243
-18 -9 -9 -11 43 -11 54 0 61 2 43 11 -27 13 -28 23 -8 72 l15 36 69 0 69 0
17 -42 c16 -42 16 -43 -5 -60 -22 -18 -21 -18 51 -18 72 0 73 1 53 18 -26 21
-38 44 -98 191 -56 136 -71 167 -78 155z m23 -159 l27 -65 -60 0 c-33 0 -58 4
-56 8 2 4 14 33 27 65 14 31 27 57 30 57 3 0 18 -29 32 -65z"/>
<path d="M4310 4703 c-28 -10 -59 -45 -65 -74 -10 -44 14 -75 100 -132 68 -44
80 -57 83 -83 4 -39 -16 -56 -64 -56 -46 0 -84 28 -100 73 -12 33 -12 32 -13
-36 0 -43 3 -65 8 -56 7 11 17 11 59 1 94 -22 162 17 162 92 0 48 -27 76 -119
127 -90 51 -98 113 -14 119 30 2 45 -3 66 -22 15 -14 27 -34 27 -45 0 -11 5
-23 10 -26 6 -4 10 19 10 61 0 57 -2 65 -15 54 -11 -9 -22 -9 -46 -1 -34 12
-64 13 -89 4z"/>
<path d="M6384 4548 c-38 -90 -80 -173 -93 -185 l-24 -23 58 0 c56 0 57 0 35
18 -21 17 -21 18 -5 60 l18 43 71 -3 71 -3 15 -43 c14 -41 14 -44 -4 -58 -18
-13 -12 -14 55 -13 60 0 70 2 52 11 -25 12 -29 20 -107 208 -31 74 -60 138
-65 143 -4 4 -39 -66 -77 -155z m116 -60 c0 -5 -25 -8 -55 -8 -30 0 -55 4 -55
9 0 5 12 35 26 67 l27 59 28 -60 c15 -33 28 -63 29 -67z"/>
<path d="M2153 4688 l27 -10 0 -158 0 -158 -27 -10 c-23 -8 -12 -10 57 -10 69
0 80 2 58 10 -27 9 -28 12 -28 79 l0 69 49 0 c87 0 136 65 105 138 -19 47 -63
62 -176 61 -75 0 -88 -3 -65 -11z m170 -40 c41 -48 8 -128 -53 -128 l-30 0 0
74 c0 50 4 76 13 79 19 8 51 -3 70 -25z"/>
<path d="M2456 4688 c28 -13 34 -45 34 -168 0 -123 -6 -155 -34 -168 -16 -8
14 -11 117 -11 l137 -1 10 25 c5 14 13 38 16 53 6 27 6 27 -14 -4 -22 -34 -66
-54 -118 -54 -65 0 -64 -3 -64 162 l0 149 33 14 c31 14 29 14 -53 14 -66 0
-80 -3 -64 -11z"/>
<path d="M3171 4677 l34 -23 3 -124 c3 -145 -1 -168 -31 -180 -16 -6 -5 -9 43
-9 59 -1 63 1 40 12 -24 12 -25 15 -27 137 l-3 125 28 -30 c15 -17 66 -79 115
-138 48 -59 92 -107 97 -107 6 0 10 65 10 169 l0 169 28 10 c23 9 16 10 -43
11 -52 0 -64 -3 -47 -9 31 -13 33 -22 30 -143 l-3 -108 -104 131 -105 130 -49
0 -50 0 34 -23z"/>
<path d="M3551 4653 c1 -45 2 -46 12 -21 10 27 50 48 88 48 18 0 19 -11 19
-159 l0 -159 -27 -10 c-23 -9 -13 -10 52 -11 65 0 76 2 58 11 -22 11 -23 15
-23 170 0 150 1 158 19 158 36 0 70 -19 85 -47 l15 -28 1 48 0 47 -150 0 -150
0 1 -47z"/>
<path d="M4670 4693 c35 -12 40 -35 40 -172 0 -75 -4 -141 -8 -147 -4 -6 -16
-16 -27 -22 -16 -9 10 -11 118 -12 l138 0 15 35 c22 54 17 59 -20 20 -33 -35
-36 -36 -98 -33 l-63 3 -3 78 -3 77 49 0 c49 0 75 -12 85 -40 3 -8 6 14 6 50
1 59 -1 63 -12 40 -11 -22 -20 -25 -70 -28 l-57 -3 0 71 0 70 63 0 c64 0 97
-17 97 -48 0 -7 5 -12 11 -12 7 0 9 9 5 23 -3 12 -6 30 -6 40 0 15 -13 17
-137 16 -76 0 -131 -3 -123 -6z"/>
<path d="M5001 4689 c33 -12 39 -38 39 -178 0 -125 -4 -145 -33 -160 -17 -8 5
-10 98 -8 100 2 126 5 155 23 129 76 107 287 -34 323 -57 14 -264 14 -225 0z
m215 -34 c42 -27 64 -74 64 -135 0 -100 -59 -164 -145 -158 l-40 3 -3 149 c-2
113 1 152 10 158 18 12 84 3 114 -17z"/>
<path d="M5403 4684 l28 -15 -3 -152 c-3 -150 -3 -152 -28 -164 -22 -11 -16
-13 55 -12 77 0 79 0 52 15 l-28 15 3 152 c3 150 3 152 28 164 22 11 16 13
-55 12 -77 0 -79 0 -52 -15z"/>
<path d="M5560 4653 l1 -48 15 28 c15 28 49 47 85 47 18 0 19 -8 19 -158 0
-155 -1 -159 -22 -170 -19 -9 -8 -11 57 -11 65 1 75 2 53 11 l-28 10 0 159 c0
148 1 159 19 159 39 0 80 -22 90 -48 8 -24 9 -22 10 21 l1 47 -150 0 -150 0 0
-47z"/>
<path d="M5903 4687 l27 -11 0 -156 c0 -153 -1 -157 -22 -168 -19 -9 -8 -11
57 -11 71 -1 77 1 55 12 -23 11 -25 19 -28 85 l-3 72 81 0 81 0 -3 -72 c-3
-66 -5 -74 -28 -85 -22 -11 -16 -13 55 -13 65 1 76 3 60 12 -11 6 -23 16 -27
22 -4 6 -8 72 -8 146 0 74 4 140 8 146 4 6 16 16 27 22 16 9 5 11 -60 11 -77
0 -79 0 -52 -15 25 -14 27 -19 27 -84 l0 -70 -80 0 -80 0 0 70 c0 65 2 70 28
84 26 14 23 15 -58 15 -72 -1 -81 -3 -57 -12z"/>
<path d="M3897 4152 c6 -4 28 -44 49 -90 20 -45 40 -82 43 -82 3 0 19 33 35
73 16 39 36 80 44 90 14 16 12 17 -19 17 -24 0 -30 -3 -20 -9 12 -8 12 -16 -4
-58 -10 -26 -21 -52 -25 -57 -11 -11 -52 84 -46 106 3 15 -2 18 -32 18 -21 0
-32 -4 -25 -8z"/>
<path d="M4098 4153 c8 -3 12 -30 12 -83 0 -53 -4 -80 -12 -83 -7 -3 5 -5 27
-5 22 0 34 2 28 5 -17 6 -18 144 -1 161 9 9 3 12 -27 11 -22 0 -34 -3 -27 -6z"/>
<path d="M4222 4080 c21 -44 38 -85 38 -90 0 -29 21 0 57 80 l41 90 -26 0
c-19 0 -23 -3 -15 -11 7 -7 4 -26 -11 -65 -11 -30 -24 -54 -27 -54 -3 0 -16
25 -29 56 -19 47 -20 58 -9 65 10 6 3 9 -22 9 l-35 0 38 -80z"/>
<path d="M4388 4148 c17 -17 16 -155 0 -161 -7 -3 19 -6 58 -6 64 -1 72 1 77
19 6 23 -8 27 -17 5 -3 -9 -19 -15 -41 -15 -34 0 -35 1 -35 41 0 40 1 41 27
34 15 -3 31 -12 35 -18 4 -7 8 4 8 23 0 26 -3 31 -12 22 -7 -7 -22 -12 -35
-12 -20 0 -23 5 -23 35 0 29 4 35 21 35 11 0 29 -5 40 -10 15 -8 19 -7 19 5 0
12 -13 15 -67 15 -52 0 -64 -3 -55 -12z"/>
<path d="M4548 4148 c17 -17 16 -155 0 -161 -7 -3 5 -5 27 -5 22 0 34 2 28 5
-14 5 -18 73 -4 73 4 0 21 -18 36 -40 21 -30 34 -40 54 -40 22 1 23 2 9 10 -9
6 -27 24 -39 41 l-21 30 21 15 c27 20 27 49 -1 68 -28 20 -129 23 -110 4z m90
-20 c16 -16 15 -23 -4 -42 -27 -27 -44 -20 -44 19 0 27 4 35 18 35 10 0 23 -5
30 -12z"/>
<path d="M4745 4128 c-63 -75 9 -184 97 -147 32 13 58 55 58 93 0 13 -12 38
-26 55 -37 44 -91 44 -129 -1z m93 14 c31 -20 36 -118 6 -142 -23 -20 -68 -7
-82 23 -33 68 22 153 76 119z"/>
</g>
</svg>
